<?xml version="1.0" standalone="no"?>
<!DOCTYPE svg PUBLIC "-//W3C//DTD SVG 20010904//EN"
 "http://www.w3.org/TR/2001/REC-SVG-20010904/DTD/svg10.dtd">
<svg version="1.0" xmlns="http://www.w3.org/2000/svg"
 width="70.000000pt" height="70.000000pt" viewBox="0 0 70.000000 70.000000"
 preserveAspectRatio="xMidYMid meet">
<metadata>
Created by potrace 1.11, written by Peter Selinger 2001-2013
</metadata>
<g transform="translate(0.000000,70.000000) scale(0.100000,-0.100000)"
fill="#000000" stroke="none">
<path d="M268 646 c-60 -18 -108 -30 -108 -27 0 3 -4 0 -9 -7 -4 -7 -18 -14
-29 -15 -12 -1 -22 -5 -22 -10 0 -4 -4 -6 -9 -2 -21 12 -25 -29 -26 -238 0
-206 3 -241 22 -242 8 -1 165 -52 193 -63 8 -3 22 -7 30 -8 8 -2 26 -6 40 -9
l25 -6 0 230 c1 126 3 232 6 235 3 3 18 7 32 8 15 1 27 6 27 11 0 4 3 6 8 4 4
-3 18 0 32 6 29 12 36 14 68 21 39 9 96 30 117 43 19 12 18 13 -6 13 -13 0
-34 7 -45 15 -12 8 -24 12 -26 10 -3 -3 -21 2 -41 10 -21 8 -37 12 -37 9 0 -4
-6 -1 -13 5 -8 6 -24 13 -38 15 -13 3 -25 5 -26 7 -2 1 -7 2 -12 3 -5 0 -13 4
-17 9 -11 11 -19 9 -136 -27z m142 -1 c0 4 6 3 13 -2 10 -8 41 -19 77 -27 40
-10 100 -32 100 -38 0 -9 -57 -1 -74 10 -6 3 -20 8 -31 9 -11 2 -21 7 -23 12
-2 5 -11 7 -21 4 -10 -3 -22 0 -25 6 -12 18 -71 12 -153 -15 -92 -31 -113 -36
-113 -25 0 4 19 13 43 20 23 7 50 17 59 22 10 5 27 9 37 9 11 0 23 5 26 10 4
6 9 9 13 6 4 -2 16 0 27 4 11 4 26 3 33 -2 6 -6 12 -7 12 -3z m-264 -140 c10
-24 -6 -38 -21 -18 -7 10 -11 21 -9 25 8 13 24 9 30 -7z m91 -34 c1 -13 -4
-18 -15 -17 -9 2 -16 6 -14 9 1 4 2 12 2 17 0 19 26 10 27 -9z m-89 -54 c2
-10 -3 -17 -12 -17 -10 0 -16 9 -16 21 0 24 23 21 28 -4z m86 -23 c8 -22 8
-24 -8 -24 -15 0 -28 24 -19 34 11 10 21 7 27 -10z m92 -36 c3 -25 -23 -22
-29 3 -4 15 -1 19 10 17 9 -2 17 -11 19 -20z m-93 -41 c3 -8 2 -20 -3 -27 -6
-10 -10 -8 -19 7 -10 19 -6 33 10 33 4 0 9 -6 12 -13z m94 -42 c0 -17 -23 -20
-32 -5 -3 6 -4 14 0 20 8 13 32 2 32 -15z m-185 -37 c-7 -7 -14 -4 -21 10 -8
15 -8 21 2 25 16 6 32 -22 19 -35z m176 -30 c17 -17 15 -30 -5 -26 -9 2 -17
11 -19 21 -3 20 7 22 24 5z m-168 -31 c0 -8 -3 -17 -7 -20 -9 -9 -34 13 -27
24 8 14 34 11 34 -4z m80 -24 c0 -7 0 -15 0 -18 0 -13 -15 -4 -21 13 -5 13 -3
19 7 19 8 0 14 -6 14 -14z m93 -50 c-5 -13 -7 -13 -21 0 -8 8 -11 20 -7 27 10
16 35 -7 28 -27z"/>
<path d="M605 510 c-8 -13 4 -32 18 -27 16 5 17 37 2 37 -8 0 -17 -4 -20 -10z"/>
<path d="M516 482 c-8 -13 11 -35 23 -28 16 10 14 36 -3 36 -8 0 -17 -4 -20
-8z"/>
<path d="M432 458 c-15 -19 2 -48 19 -31 7 7 8 17 2 28 -8 13 -11 14 -21 3z"/>
<path d="M609 438 c-10 -45 -9 -49 12 -38 21 12 22 31 1 38 -7 2 -12 2 -13 0z"/>
<path d="M521 396 c-8 -10 -9 -16 -1 -21 13 -8 30 3 30 21 0 18 -14 18 -29 0z"/>
<path d="M611 351 c-9 -6 -10 -14 -4 -25 9 -16 11 -16 23 -1 16 19 2 38 -19
26z"/>
<path d="M517 324 c-9 -10 4 -34 18 -34 8 0 13 9 12 20 -1 19 -17 27 -30 14z"/>
<path d="M430 280 c0 -13 5 -20 13 -17 6 2 12 10 12 17 0 7 -6 15 -12 18 -8 2
-13 -5 -13 -18z"/>
<path d="M517 237 c-2 -7 -2 -18 0 -25 4 -10 8 -10 19 -1 8 6 14 15 14 19 0
14 -28 19 -33 7z"/>
<path d="M436 223 c-3 -3 -6 -15 -6 -25 0 -25 25 -23 27 2 2 21 -10 34 -21 23z"/>
<path d="M600 176 c0 -18 13 -27 25 -18 18 13 15 32 -5 32 -11 0 -20 -6 -20
-14z"/>
<path d="M430 113 c0 -25 1 -26 16 -11 9 9 13 21 10 27 -13 20 -26 11 -26 -16z"/>
</g>
</svg>
