<?xml version="1.0" standalone="no"?>
<!DOCTYPE svg PUBLIC "-//W3C//DTD SVG 20010904//EN"
 "http://www.w3.org/TR/2001/REC-SVG-20010904/DTD/svg10.dtd">
<svg version="1.0" xmlns="http://www.w3.org/2000/svg"
 width="572.000000pt" height="572.000000pt" viewBox="0 0 572.000000 572.000000"
 preserveAspectRatio="xMidYMid meet">
<metadata>
Created by potrace 1.11, written by Peter Selinger 2001-2013
</metadata>
<g transform="translate(0.000000,572.000000) scale(0.100000,-0.100000)"
fill="#000000" stroke="none">
<path d="M3260 4700 l-1005 -5 -95 -26 c-194 -54 -395 -147 -563 -261 -116
-79 -276 -238 -349 -348 -32 -47 -314 -535 -628 -1085 l-571 -1000 28 -6 c15
-4 219 -7 453 -8 l425 -1 525 915 525 915 453 0 454 0 -20 -32 c-76 -125 -362
-631 -362 -640 0 -8 76 -9 253 -5 278 6 377 19 508 67 201 73 301 160 426 370
97 164 653 1147 653 1154 0 3 -24 5 -52 4 -29 -2 -505 -5 -1058 -8z"/>
<path d="M4756 3787 c-29 -47 -837 -1459 -843 -1473 -4 -12 55 -14 453 -12
l459 3 423 743 c233 409 423 745 421 746 -2 2 -206 6 -452 9 l-448 5 -13 -21z"/>
<path d="M2545 2635 c-136 -29 -297 -117 -396 -216 -36 -36 -87 -107 -136
-191 -67 -112 -615 -1075 -652 -1146 l-12 -23 1058 3 1058 3 97 27 c329 90
641 279 820 495 80 96 113 145 188 276 l59 102 -909 5 -909 5 189 330 c105
182 190 333 190 338 0 13 -579 7 -645 -8z"/>
</g>
</svg>
